Coordinates
version=1
nRows=16
nColumns=40
inDegrees=yes

Units are S.I. units (second, meters, Newtons, ...)
Angles are in degrees.

endheader
time	pelvis_tilt	pelvis_list	pelvis_rotation	pelvis_tx	pelvis_ty	pelvis_tz	hip_flexion_r	hip_adduction_r	hip_rotation_r	knee_angle_r	knee_angle_r_beta	ankle_angle_r	subtalar_angle_r	mtp_angle_r	hip_flexion_l	hip_adduction_l	hip_rotation_l	knee_angle_l	knee_angle_l_beta	ankle_angle_l	subtalar_angle_l	mtp_angle_l	lumbar_extension	lumbar_bending	lumbar_rotation	arm_flex_r	arm_add_r	arm_rot_r	elbow_flex_r	pro_sup_r	wrist_flex_r	wrist_dev_r	arm_flex_l	arm_add_l	arm_rot_l	elbow_flex_l	pro_sup_l	wrist_flex_l	wrist_dev_l
      5.65792857	     -5.77736158	     -5.44670253	      5.82765040	      1.00039547	      0.92019402	      0.48866916	      2.10447268	      4.36914513	    -16.36001176	     10.65233923	     10.65233923	     16.33341403	      3.94026795	     -3.66445783	     31.60316296	     -7.64610482	     -2.48882983	     20.57151229	     20.57151229	      4.18790118	     -8.72664231	      4.50507301	     -9.49724347	      4.27367134	      2.53951799	     26.58854383	    -16.95097664	      5.90529420	     78.88790282	     44.40846280	      0.00000000	      0.00000000	     11.01803374	    -12.71829082	      2.24450745	     33.79832382	     46.55556540	      0.00000000	      0.00000000
      5.67085714	     -5.68540179	     -5.49462120	      5.59643379	      1.00248153	      0.91931311	      0.48730781	      1.57719288	      4.33578407	    -16.08518484	     10.83607634	     10.83607634	     16.69946975	      4.00808277	     -3.74567619	     31.07296730	     -7.71841565	     -2.93329802	     21.13546287	     21.13546287	      3.82846826	     -9.18093965	      4.51214649	     -9.32283283	      4.20117250	      2.76100801	     26.07262854	    -16.68093138	      6.11296491	     78.72112309	     44.40747624	      0.00000000	      0.00000000	     10.31055340	    -12.57845996	      2.17284133	     33.61741237	     46.55149666	      0.00000000	      0.00000000
      5.68378571	     -5.60437070	     -5.51626587	      5.39088814	      1.00453034	      0.91845072	      0.48562980	      1.17652857	      4.19642048	    -15.99205069	     11.30509023	     11.30509023	     17.66394808	      4.30989346	     -2.36719506	     30.56471180	     -7.63640783	     -2.79663393	     21.57825180	     21.57825180	      2.56673083	    -10.63330290	      2.43828412	     -9.13762136	      4.13522846	      2.05193990	     26.60268961	    -16.10816804	      8.06344279	     76.54082822	     44.49121858	      0.00000000	      0.00000000	      8.88805794	    -12.43107231	     -0.39217356	     34.32283245	     46.78677509	      0.00000000	      0.00000000
      5.69671429	     -5.49360475	     -5.49448341	      5.20616916	      1.00663185	      0.91792823	      0.48390000	      0.64927095	      4.04679950	    -15.79020236	     11.52518867	     11.52518867	     17.93125969	      4.33447147	     -2.45748020	     30.09800617	     -7.60277805	     -2.87402838	     22.16290025	     22.16290025	      2.53022698	    -10.98515961	      2.40624378	     -9.01961474	      4.03657046	      2.23666382	     25.78391739	    -15.94989406	      8.25688551	     76.25944292	     44.49247945	      0.00000000	      0.00000000	      8.25155775	    -12.23718155	     -0.42096581	     34.11979870	     46.77792227	      0.00000000	      0.00000000
      5.70964286	     -5.41564624	     -5.44924057	      5.06289316	      1.00849520	      0.91738458	      0.48191270	      0.38163377	      3.78183334	    -15.64776321	     12.16388758	     12.16388758	     18.29762481	      4.26181708	     -2.46372814	     29.90557945	     -7.45493136	     -2.55102967	     23.07413075	     23.07413075	      2.63994173	    -11.88956579	      2.33290979	     -8.88640303	      3.87697855	      2.47700183	     24.99356515	    -15.99890383	      8.57999531	     75.33437512	     44.51867890	      0.00000000	      0.00000000	      7.88275370	    -12.03724623	     -0.67070465	     33.97285053	     46.79141398	      0.00000000	      0.00000000
      5.72257143	     -5.27022560	     -5.35107854	      4.96390382	      1.01049030	      0.91738682	      0.47975269	     -0.09942640	      3.50114084	    -15.49479619	     12.52854915	     12.52854915	     18.44293096	      4.21381256	     -2.49569109	     29.47310166	     -7.27535692	     -2.35341961	     23.63548201	     23.63548201	      2.98378286	    -12.25087770	      2.16215208	     -8.88676027	      3.70299853	      2.47705358	     23.99947689	    -15.88553935	      8.79582213	     74.88028719	     44.52418254	      0.00000000	      0.00000000	      7.30652778	    -11.91505049	     -0.71595715	     33.74594221	     46.78528457	      0.00000000	      0.00000000
      5.73550000	     -5.26542983	     -5.20067247	      4.85343370	      1.01200747	      0.91723613	      0.47736152	      0.06199139	      2.98275160	    -15.39536333	     13.82323376	     13.82323376	     18.86548526	      3.94746422	     -2.46059389	     29.37278452	     -6.94258693	     -1.87394405	     24.43778009	     24.43778009	      3.34622114	    -13.25452992	      2.28297059	     -8.74524319	      3.46660671	      2.59638821	     23.26885573	    -15.91475728	      9.19289014	     73.21860647	     44.57477905	      0.00000000	      0.00000000	      7.09846042	    -11.73212005	     -1.03965150	     33.41289360	     46.80708896	      0.00000000	      0.00000000
      5.74842857	     -5.16743705	     -5.03935758	      4.77496145	      1.01363879	      0.91757954	      0.47484744	      0.03707170	      2.48079489	    -15.32089656	     14.93837360	     14.93837360	     19.12820579	      3.74724739	     -2.35090968	     29.03759334	     -6.62830100	     -1.55062594	     24.99089583	     24.99089583	      3.94074723	    -13.82525021	      2.45905822	     -8.69490903	      3.22029227	      2.46420693	     22.48472313	    -15.74818718	      9.59274024	     71.62609959	     44.62374649	      0.00000000	      0.00000000	      6.75118705	    -11.59257992	     -1.39943243	     32.92995218	     46.82891397	      0.00000000	      0.00000000
      5.76135714	     -4.94428940	     -5.01291644	      4.74914102	      1.01535971	      0.91842887	      0.47223363	     -0.30794639	      2.19677773	    -15.24970977	     15.62517763	     15.62517763	     19.02627268	      3.61299609	     -2.38540173	     28.50432950	     -6.47891135	     -1.32588305	     25.37675755	     25.37675755	      4.56758806	    -14.08898129	      2.26057512	     -8.85570728	      3.21030248	      2.29520922	     21.29591278	    -15.70331433	      9.79235857	     71.01033268	     44.63417773	      0.00000000	      0.00000000	      6.25570730	    -11.47479529	     -1.44942476	     32.69860590	     46.82436730	      0.00000000	      0.00000000
      5.77428571	     -4.96402052	     -4.76389887	      4.56281364	      1.01652595	      0.91887179	      0.46954231	      0.36240065	      1.39827123	    -15.08848285	     17.76908090	     17.76908090	     19.23038019	      3.09699818	     -2.78940587	     28.21501798	     -6.11536949	     -1.32178907	     25.78129015	     25.78129015	      5.22829443	    -14.49710351	      2.38815951	     -8.78004685	      2.88849697	      2.48627008	     20.39043653	    -15.82727585	     10.03114910	     69.18904343	     44.69119076	      0.00000000	      0.00000000	      6.25566211	    -11.29085246	     -1.66209674	     32.38392523	     46.83971633	      0.00000000	      0.00000000
      5.78721429	     -4.82708097	     -4.64167294	      4.45755979	      1.01787926	      0.91982043	      0.46685328	      0.68599805	      0.82030649	    -14.95804592	     19.51813868	     19.51813868	     19.12063934	      2.68776634	     -3.15384595	     27.66455281	     -5.87636643	     -1.29095564	     25.99309689	     25.99309689	      5.90315926	    -14.69064391	      2.41535842	     -8.88794236	      2.73823311	      2.44408988	     19.30777884	    -15.77655960	     10.24869092	     67.75501913	     44.73264428	      0.00000000	      0.00000000	      6.06161860	    -11.18787980	     -1.80009432	     32.04336116	     46.84563911	      0.00000000	      0.00000000
      5.80014286	     -4.88096651	     -4.50388662	      4.24530352	      1.01899750	      0.92059019	      0.46421331	      1.52632254	      0.12344264	    -14.70495228	     21.79615400	     21.79615400	     18.87413306	      2.12783645	     -3.86000126	     27.21036659	     -5.64930618	     -1.45647407	     26.01435536	     26.01435536	      6.54340941	    -14.77933368	      2.56922192	     -8.75956726	      2.58223795	      2.46573453	     18.37051935	    -15.75293812	     10.42665078	     65.76153017	     44.79748061	      0.00000000	      0.00000000	      5.89020179	    -11.00431292	     -1.96710007	     31.58652454	     46.85127686	      0.00000000	      0.00000000
      5.81307143	     -4.79382273	     -4.38850757	      4.02647496	      1.02013566	      0.92156787	      0.46163608	      2.33560809	     -0.55685695	    -14.41202753	     24.25221709	     24.25221709	     18.43163162	      1.49246171	     -4.70990027	     26.56178808	     -5.47726925	     -1.72205560	     25.96786318	     25.96786318	      7.14352775	    -14.78902552	      2.58616728	     -8.79813741	      2.46928366	      2.44801214	     17.38166485	    -15.72582845	     10.59064116	     64.02275454	     44.85215143	      0.00000000	      0.00000000	      5.75716449	    -10.89981333	     -2.08749128	     31.27286879	     46.85409259	      0.00000000	      0.00000000
      5.82600000	     -4.76734358	     -4.28312209	      3.75184549	      1.02109674	      0.92246167	      0.45922166	      3.45057996	     -1.26768824	    -14.02441784	     27.07086155	     27.07086155	     17.74044569	      0.71499412	     -5.81615258	     25.92882397	     -5.33822684	     -2.07317441	     25.82925118	     25.82925118	      7.67685083	    -14.73648455	      2.54119599	     -8.81574220	      2.32248489	      2.45085837	     16.37823659	    -15.71370198	     10.73872807	     62.18415890	     44.91043401	      0.00000000	      0.00000000	      5.62946795	    -10.80188703	     -2.17644731	     31.02072290	     46.85290181	      0.00000000	      0.00000000
      5.83892857	     -4.73868051	     -4.22641933	      3.48982319	      1.02199501	      0.92335831	      0.45685857	      4.56049931	     -1.86294259	    -13.47842183	     29.61838743	     29.61838743	     15.15307936	     -1.06548210	    -11.47108635	     25.29578786	     -5.23881686	     -2.39172539	     25.67528507	     25.67528507	      8.19642139	    -14.62215573	      2.70380289	     -8.69467971	      2.28637670	      1.69795693	     16.69061537	    -14.77777937	     11.08138579	     57.13109760	     45.10397966	      0.00000000	      0.00000000	      5.16248119	    -10.82263117	     -2.83660426	     30.56966351	     46.83997003	      0.00000000	      0.00000000
      5.85185714	     -4.59506393	     -4.10003230	      3.16301126	      1.02274687	      0.92425107	      0.45455611	      5.97796251	     -2.65845774	    -12.95338882	     33.09591776	     33.09591776	     14.09403552	     -1.93550732	    -12.24062128	     24.51010095	     -5.10323018	     -2.84337793	     25.47981573	     25.47981573	      8.59193896	    -14.53882761	      2.52994238	     -8.91383623	      2.18265532	      1.78006975	     15.48782768	    -15.03024123	     11.22974735	     56.18501443	     45.12724196	      0.00000000	      0.00000000	      5.08580668	    -10.75887427	     -2.88329907	     30.65537859	     46.83664342	      0.00000000	      0.00000000
